<?xml version="1.0" encoding="UTF-8"?>
<!DOCTYPE svg PUBLIC "-//W3C//DTD SVG 1.1//EN" "http://www.w3.org/Graphics/SVG/1.1/DTD/svg11.dtd">
<!-- Creator: CorelDRAW -->
<svg xmlns="http://www.w3.org/2000/svg" xml:space="preserve" width="1.99367in" height="0.886547in" version="1.1" style="shape-rendering:geometricPrecision; text-rendering:geometricPrecision; image-rendering:optimizeQuality; fill-rule:evenodd; clip-rule:evenodd"
viewBox="0 0 249.79 111.08"
 xmlns:xlink="http://www.w3.org/1999/xlink"
 xmlns:xodm="http://www.corel.com/coreldraw/odm/2003">
 <defs>
  <style type="text/css">
   <![CDATA[
    .fil0 {fill:red}
   ]]>
  </style>
 </defs>
 <g id="Layer_x0020_1">
  <metadata id="CorelCorpID_0Corel-Layer"/>
  <path class="fil0" d="M29.57 25.64c1.8,0 2.43,1.27 1.89,3.83l-0.76 2.97c-1.18,5.51 0.16,13.85 4.03,25.04 0.83,-3.52 1.88,-7.07 3.13,-10.63 1.25,-3.57 2.23,-6.52 2.95,-8.85 0.71,-2.33 1.14,-3.61 1.27,-3.8 0.12,-0.2 0.52,-1.34 1.2,-3.44 0.66,-2.1 1.23,-3.36 1.67,-3.8 1.11,-1.06 1.87,-2.36 2.29,-3.9 0.13,-0.39 0.46,-0.9 1.01,-1.51 0.55,-0.62 0.92,-0.92 1.09,-0.92 0.18,0 0.29,0.12 0.31,0.39 0.03,0.26 0.16,0.39 0.38,0.39l0.43 -0.14c0.83,0 1.15,0.48 0.94,1.45l-0.6 2.18c-0.35,1.63 -0.1,2.51 0.75,2.65 0.51,-0.14 0.92,-0.44 1.19,-0.92 0.28,-0.48 0.49,-0.73 0.62,-0.73 0.14,0 0.08,0.55 -0.15,1.66 -0.23,1.09 -0.95,3.13 -2.13,6.11 -1.19,2.96 -2.39,6.19 -3.62,9.64 -1.22,3.46 -2.08,5.85 -2.59,7.17 -0.5,1.32 -0.99,2.72 -1.46,4.19 -0.46,1.48 -1.32,4.02 -2.56,7.67 -1.24,3.63 -2.08,6.16 -2.54,7.56 -0.45,1.41 -0.75,2.14 -0.9,2.21 -0.14,0.07 -0.18,-0.06 -0.11,-0.36l0.13 -0.6 0.26 -0.92 -0.78 1.18c-0.52,0.76 -0.92,1.58 -1.23,2.48 -0.31,0.9 -0.67,1.94 -1.13,3.11 -0.44,1.16 -0.74,2.11 -0.9,2.83 -0.16,0.73 -0.4,1.23 -0.71,1.49 -0.33,0.27 -0.55,0.52 -0.69,0.77 -0.14,0.24 -0.22,0.36 -0.25,0.36 -0.02,0 -0.04,-0.12 -0.06,-0.36 -0,-0.25 -0.07,-0.41 -0.19,-0.5 -0.12,-0.09 -0.15,-0.34 -0.1,-0.73 0.04,-0.39 0.04,-1.92 0.02,-4.55 -0.03,-2.64 0.1,-4.72 0.38,-6.25 0.28,-1.51 0.49,-2.62 0.64,-3.3 0.14,-0.68 0.43,-1.91 0.85,-3.66 -0.34,-0.88 -0.59,-1.44 -0.77,-1.68 -0.16,-0.25 -0.4,-0.72 -0.69,-1.42 -0.29,-0.71 -1.36,-3.08 -3.21,-7.1 -1.84,-4.04 -3.53,-8.42 -5.07,-13.18 -0.48,1.18 -1.17,2.95 -2.09,5.29 -0.92,2.33 -1.66,4.16 -2.23,5.48 -0.56,1.32 -1.12,2.72 -1.65,4.19 -0.54,1.48 -1.52,4.02 -2.96,7.67 -1.44,3.63 -2.42,6.16 -2.94,7.56 -0.53,1.41 -0.85,2.14 -0.97,2.21 -0.13,0.07 -0.16,-0.06 -0.09,-0.36l0.13 -0.6 0.4 -0.92 -0.85 1.18c-0.58,0.85 -1.05,1.69 -1.4,2.55 -0.36,0.86 -0.81,1.87 -1.32,3.04 -0.51,1.16 -0.87,2.11 -1.07,2.83 -0.2,0.73 -0.45,1.23 -0.75,1.49 -0.31,0.27 -0.52,0.52 -0.66,0.77 -0.14,0.24 -0.23,0.36 -0.28,0.36 -0.05,0 -0.05,-0.12 -0.05,-0.36 0.01,-0.25 -0.05,-0.41 -0.16,-0.5 -0.12,-0.09 -0.13,-0.34 -0.07,-0.73 0.06,-0.39 0.13,-1.86 0.2,-4.39 0.08,-2.54 0.21,-4.22 0.39,-5.06 0.17,-0.79 0.34,-1.6 0.52,-2.44 0.17,-0.8 0.38,-1.6 0.62,-2.41 0.23,-0.82 0.9,-3.28 2.01,-7.4 1.1,-4.13 2.4,-8.09 3.9,-11.93 1.5,-3.83 2.66,-6.91 3.5,-9.24 0.83,-2.33 1.31,-3.61 1.47,-3.8 0.16,-0.2 0.6,-1.34 1.37,-3.44 0.75,-2.1 1.35,-3.36 1.8,-3.8 0.98,-0.88 1.83,-2.18 2.55,-3.9 0.17,-0.39 0.53,-0.9 1.08,-1.51 0.56,-0.62 0.92,-0.92 1.1,-0.92 0.17,0 0.35,0.1 0.52,0.33 0.18,0.21 0.37,0.33 0.6,0.33 0.83,0 1.13,0.48 0.87,1.45l-0.79 2.18c-0.21,0.76 -0.27,1.35 -0.18,1.79 0.09,-0.04 0.21,-0.09 0.36,-0.14l1.54 -0.73c0.43,-0.17 0.88,-0.24 1.36,-0.19zm129.94 28.99l0.43 0.45c-0.04,0.18 -0.32,0.3 -0.87,0.37 -0.54,0.07 -1.24,0.28 -2.09,0.65 -0.85,0.38 -1.62,0.62 -2.3,0.73 -0.69,0.11 -1.03,0.25 -1.05,0.43 -0.02,0.18 -0.03,0.38 -0.03,0.63 -0.02,0.24 -0.06,0.56 -0.15,0.98 -0.09,0.43 -0.03,0.63 0.17,0.63 0.19,0 0.69,-0.29 1.51,-0.89 0.8,-0.6 1.26,-0.89 1.34,-0.89 0.09,0 0.13,0.05 0.11,0.14 -0.02,0.08 -0.22,0.41 -0.63,0.96 -0.4,0.54 -0.8,1.74 -1.19,3.56 -0.39,1.83 -0.35,3.64 0.12,5.44 0.47,1.82 0.66,2.98 0.55,3.51 -0.11,0.53 -0.36,0.98 -0.73,1.35 -0.36,0.37 -1.11,1.04 -2.24,1.98 -1.13,0.95 -2.68,1.42 -4.66,1.42 -0.66,0 -1.04,-0.15 -1.14,-0.43 -0.08,-0.29 -0.33,-0.55 -0.72,-0.8 -0.39,-0.24 -0.53,-0.76 -0.43,-1.54 0.1,-0.8 0.37,-2.42 0.81,-4.89 0.44,-2.47 0.36,-3.72 -0.24,-3.77 -0.25,0.14 -1.9,1.56 -4.95,4.26 -3.05,2.71 -5.26,4.45 -6.63,5.22 -1.38,0.77 -2.25,1.34 -2.61,1.71 -0.37,0.38 -1.54,0.83 -3.5,1.35 -1.96,0.53 -3.54,0.8 -4.76,0.8 -1.21,0 -2.2,-0.11 -2.96,-0.34 -0.78,-0.21 -1.19,-0.41 -1.24,-0.55 -0.06,-0.16 -0.17,-0.27 -0.33,-0.34 -0.15,-0.07 -0.45,-0.37 -0.88,-0.92 -0.43,-0.55 -0.46,-1.76 -0.06,-3.63 0.4,-1.87 1.35,-4.06 2.86,-6.57 1.51,-2.51 2.41,-4.05 2.71,-4.62 0.29,-0.58 0.56,-0.98 0.79,-1.23 0.22,-0.24 0.45,-0.6 0.69,-1.08 0.23,-0.48 0.45,-0.78 0.65,-0.86 0.19,-0.09 0.33,-0.23 0.41,-0.41 0.16,-0.74 1.52,-2.03 4.06,-3.86 2.54,-1.83 4.29,-2.98 5.22,-3.44 0.94,-0.46 1.94,-0.95 2.99,-1.45 1.06,-0.51 2.86,-1.21 5.43,-2.11 2.57,-0.9 4.99,-1.36 7.26,-1.36 2.27,0 4.18,0.44 5.74,1.3 1.55,0.86 2.34,1.66 2.35,2.41 -0.03,0.35 -0.06,0.79 -0.08,1.32l-0.34 1.58 1.11 0.34c0.78,0.3 1.17,0.63 1.19,0.99 -0.11,0.3 -0.24,0.48 -0.38,0.52 -0.39,0 -0.78,0.27 -1.16,0.8 -0.1,0.05 -0.15,0.09 -0.16,0.14zm-15.34 6.44c0.41,-0.37 0.82,-0.82 1.21,-1.35 0.41,-0.53 0.79,-1.03 1.17,-1.49 0.39,-0.46 0.61,-0.87 0.69,-1.23 0.07,-0.35 0.05,-0.52 -0.08,-0.52 -0.23,0 -1.4,0.27 -3.55,0.82 -2.15,0.55 -3.54,1.06 -4.19,1.52 -0.65,0.46 -1.07,0.72 -1.25,0.79 -0.2,0.07 -0.75,0.44 -1.66,1.12 -0.92,0.69 -1.61,1.05 -2.08,1.09 -0.47,0.05 -0.7,0.11 -0.67,0.2l-0.06 0.26 -0.11 0.2c-0.04,-0.05 -0.1,-0.07 -0.19,-0.07 -0.39,0 -1.5,1.09 -3.3,3.27 -1.81,2.18 -2.93,4.15 -3.35,5.91 0.26,0.48 0.78,0.72 1.61,0.7 0.82,-0.02 1.67,-0.26 2.56,-0.7 0.88,-0.44 1.36,-0.71 1.43,-0.82 0.07,-0.11 0.17,-0.17 0.3,-0.17 0.69,-0.12 2.61,-1.57 5.78,-4.32 3.17,-2.75 4.81,-4.22 4.94,-4.4 0.12,-0.18 0.39,-0.45 0.8,-0.82zm9.85 5.38c-0.05,0.05 -0.23,0.77 -0.53,2.15 -0.3,1.39 -0.14,2.39 0.49,3 0.16,0.04 0.33,0.08 0.5,0.1 0.18,0.02 0.31,-0.17 0.39,-0.56 0.08,-0.39 -0.02,-1.23 -0.29,-2.5 -0.28,-1.28 -0.47,-2.01 -0.56,-2.19zm-39.91 -19.41l0.91 0.72 0.78 -0.26c0.14,0 0.2,0.09 0.16,0.29 -0.02,0.2 0.08,0.3 0.3,0.33 0.21,0.02 0.13,1.21 -0.26,3.54 -0.4,2.33 -0.48,3.52 -0.26,3.56 0.15,-0.12 0.31,-0.27 0.45,-0.43 0.15,-0.16 0.27,-0.23 0.41,-0.23l0.57 0.12c0.17,0 0.4,-0.26 0.7,-0.79 0.28,-0.53 0.5,-0.79 0.63,-0.79 0.27,-0.04 0.29,0.51 0.04,1.65l-0.48 2.24c-1.1,5.17 -7.96,30.59 -31.04,43.99 -8.95,5.2 -14.47,8.73 -25.77,7.96 5.32,-2.05 10.92,-6.77 15.28,-9.55 26.12,-16.66 29.31,-33.3 30.51,-39.1 0,0 0.19,-0.88 0.56,-2.64 0.35,-1.63 0.61,-2.47 0.76,-2.51 0.17,-0.04 0.3,-0.17 0.39,-0.39 0.08,-0.21 0.27,-0.37 0.56,-0.46 1.13,-0.39 1.99,-1.94 2.57,-4.62 0.12,-0.57 0.36,-1.01 0.71,-1.32 0.36,-0.3 0.62,-0.61 0.79,-0.89 0.18,-0.29 0.41,-0.43 0.72,-0.43zm8.75 -8.52c0.21,-0.14 0.38,-0.2 0.54,-0.2 0.16,0 0.21,0.08 0.17,0.24 -0.03,0.15 -0.66,0.56 -1.91,1.22 -1.25,0.66 -2.01,1 -2.3,1.03 -0.29,0.02 -0.67,0.2 -1.16,0.53 -0.49,0.33 -1.2,0.5 -2.12,0.5 -0.92,0 -1.64,-0.17 -2.17,-0.5 -0.53,-0.33 -0.77,-0.59 -0.73,-0.77 0.04,-0.17 0.38,-0.72 1.04,-1.65 0.66,-0.92 1.07,-1.76 1.24,-2.51 0.16,-0.74 -0.01,-1.52 -0.49,-2.35 -0.49,-0.81 -0.7,-1.36 -0.64,-1.65 0.06,-0.29 0.27,-0.43 0.62,-0.43 0.18,-0.05 0.31,-0.14 0.38,-0.27l0.1 -0.46c0.05,-0.21 0.35,-0.57 0.9,-1.08 0.55,-0.51 0.93,-1.3 1.16,-2.34 0.47,-1.98 1.38,-3.02 2.72,-3.11 1.23,0 2.44,0.71 3.64,2.12 0.52,0.7 0.67,1.52 0.46,2.47 -0.2,0.95 -0.16,1.51 0.1,1.69 0.79,0.21 1.35,0.71 1.67,1.49 0.32,0.77 0.43,1.31 0.34,1.61 -0.09,0.32 -0.22,0.54 -0.41,0.7 -0.19,0.15 -0.34,0.38 -0.47,0.69 -0.14,0.32 -0.66,0.97 -1.59,1.98l-1.08 1.06zm0.99 -6.93c-0.24,0 -0.38,0.11 -0.44,0.36 -0.05,0.24 0.02,0.71 0.23,1.42 0.2,0.7 0.54,1.06 1.02,1.06 0.48,0 0.75,-0.12 0.8,-0.37 0.05,-0.24 -0.14,-0.71 -0.59,-1.42 -0.44,-0.7 -0.79,-1.05 -1.03,-1.05zm-56.37 44.45c-0.39,0 -0.87,0.33 -1.43,0.99 -0.56,0.65 -1.05,1.1 -1.47,1.35 -0.43,0.24 -0.7,0.43 -0.82,0.56 -0.12,0.12 -0.19,0.19 -0.21,0.19 -0.02,0 -0.03,-0.38 -0.05,-1.15 -0.01,-0.78 0.15,-1.89 0.46,-3.37 0.32,-1.48 1.12,-4.05 2.44,-7.73 1.32,-3.67 2.2,-6.61 2.67,-8.82 0.47,-2.2 0.57,-3.37 0.28,-3.49 -0.46,-0.14 -1.02,-0.34 -1.72,-0.6l0.97 -1.13c0.63,-0.7 0.99,-1.22 1.09,-1.54 0.09,-0.34 0.2,-0.56 0.32,-0.7 0.39,-0.18 0.99,-0.69 1.81,-1.56 0.83,-0.86 1.28,-1.38 1.36,-1.54 0.08,-0.18 0.47,-0.55 1.17,-1.13 0.7,-0.58 1.13,-0.86 1.31,-0.86 0.17,0 0.39,0.11 0.65,0.33 0.27,0.23 0.56,0.35 0.87,0.39 0.33,0.04 0.63,0.2 0.93,0.46 0.26,0.41 0.22,1.5 -0.14,3.3 -0.36,1.8 -0.39,2.83 -0.06,3.08 0.32,0.24 0.61,0.36 0.88,0.36 0.26,0 0.44,-0.2 0.52,-0.6l0.1 -0.79c0.07,-0.3 0.19,-0.46 0.36,-0.46 0.49,0.18 0.59,0.97 0.29,2.38 -0.3,1.41 -1.18,3.63 -2.62,6.67 0.28,-0.27 0.58,-0.55 0.92,-0.86 0.33,-0.32 0.86,-0.86 1.6,-1.62 0.74,-0.77 1.18,-1.2 1.33,-1.28 0.14,-0.09 0.27,-0.21 0.37,-0.37 0.1,-0.15 0.36,-0.43 0.77,-0.82 0.41,-0.39 1.14,-1.08 2.19,-2.07 1.05,-0.99 1.83,-1.71 2.34,-2.15 0.51,-0.44 1.21,-1.12 2.09,-2.04 0.87,-0.92 1.4,-1.39 1.58,-1.39 0.16,-0.14 0.27,-0.32 0.34,-0.53 0.07,-0.23 0.22,-0.37 0.43,-0.43 0.21,-0.07 1.39,-1.24 3.56,-3.51 2.15,-2.27 3.81,-3.4 4.95,-3.4 0.12,0 0.29,0.03 0.47,0.1 0.18,0.07 0.59,0.19 1.24,0.36 0.64,0.18 1.03,0.54 1.19,1.09 0.14,0.55 0.2,0.91 0.16,1.09l-1.09 3.56c-0.1,0.48 -0.08,0.73 0.1,0.73l2.16 -0.8c0.17,0 0.39,0.15 0.63,0.43 0.25,0.29 0.28,0.85 0.11,1.66 -0.17,0.81 -0.66,1.87 -1.47,3.17 -0.81,1.3 -1.26,2.09 -1.36,2.34 -0.1,0.26 -0.54,0.98 -1.28,2.14 -0.76,1.17 -2.22,4.04 -4.35,8.59 -2.15,4.55 -3.66,8.93 -4.55,13.11 -0.17,0.57 -0.45,0.99 -0.83,1.26 -0.38,0.26 -0.66,0.76 -0.81,1.48 -0.16,0.73 -0.63,1.67 -1.39,2.82 -0.18,0.21 -0.39,0.33 -0.6,0.33 -0.23,0 -0.63,-0.36 -1.23,-1.06 -2.1,-2.56 -2.5,-6.96 -1.21,-13.21 0.03,-0.14 0.06,-0.26 0.08,-0.39 0.57,-2.68 2.2,-6.56 4.86,-11.62 0.46,-0.88 0.72,-1.47 0.78,-1.76 0.06,-0.28 0.05,-0.43 -0.04,-0.43 -0.09,0 -0.42,0.23 -1,0.66 -0.58,0.44 -1.16,0.73 -1.75,0.89 -0.59,0.16 -1.09,0.38 -1.5,0.7 -0.41,0.3 -0.72,0.52 -0.91,0.65 -0.18,0.14 -0.36,0.26 -0.54,0.36 -0.17,0.11 -0.36,0.21 -0.56,0.3 -0.19,0.09 -1.94,1.47 -5.23,4.13 -3.3,2.66 -5.49,4.44 -6.56,5.32 -0.28,0.53 -0.48,0.98 -0.58,1.35 -0.1,0.37 -0.79,1.36 -2.05,2.97 -1.27,1.61 -2.08,2.54 -2.41,2.78 -0.34,0.24 -0.53,0.5 -0.59,0.76l0.11 0.07 -0.45 -0.07zm36.74 -28.8c0.03,-0.12 -0.11,-0.18 -0.43,-0.16 -0.31,0.02 -0.5,0.18 -0.57,0.5 -0.03,0.12 0.12,0.18 0.43,0.16 0.32,-0.02 0.5,-0.18 0.57,-0.5zm-38.11 -6.47c0.46,-0.3 0.65,-0.28 0.57,0.07 -0.03,0.14 -0.64,0.53 -1.87,1.18 -1.22,0.66 -1.98,1.01 -2.28,1.06 -0.29,0.04 -0.69,0.21 -1.19,0.5 -0.51,0.28 -1.22,0.43 -2.14,0.43 -0.92,0 -1.64,-0.15 -2.12,-0.43 -0.49,-0.28 -0.72,-0.52 -0.69,-0.69 0.04,-0.18 0.38,-0.73 1.02,-1.66 0.64,-0.92 1.04,-1.77 1.21,-2.55 0.16,-0.77 0.01,-1.56 -0.45,-2.37 -0.47,-0.82 -0.66,-1.38 -0.6,-1.66 0.06,-0.28 0.26,-0.43 0.62,-0.43 0.18,-0.05 0.31,-0.14 0.38,-0.27l0.1 -0.45c0.05,-0.23 0.33,-0.57 0.85,-1.06 0.53,-0.48 0.91,-1.28 1.14,-2.38 0.47,-1.98 1.37,-3 2.7,-3.04 1.23,0 2.42,0.69 3.59,2.05 0.52,0.7 0.69,1.52 0.54,2.45 -0.15,0.92 -0.1,1.48 0.18,1.65 0.79,0.23 1.35,0.72 1.67,1.49 0.32,0.77 0.41,1.33 0.29,1.68 -0.12,0.36 -0.26,0.6 -0.42,0.73 -0.16,0.14 -0.31,0.36 -0.45,0.69 -0.13,0.34 -0.68,0.98 -1.63,1.95l-1.02 1.06zm0.94 -6.87c-0.23,0 -0.35,0.1 -0.4,0.33 -0.05,0.23 0.02,0.69 0.22,1.39 0.21,0.71 0.55,1.06 1.04,1.06 0.48,0 0.75,-0.14 0.81,-0.39 0.06,-0.27 -0.15,-0.73 -0.63,-1.39 -0.48,-0.66 -0.82,-0.99 -1.04,-0.99zm-16.94 44.65c-0.41,0 -0.88,0.33 -1.44,0.99 -0.56,0.65 -1.05,1.1 -1.47,1.35 -0.43,0.24 -0.7,0.43 -0.82,0.55 -0.12,0.14 -0.19,0.2 -0.21,0.2 -0.01,0 -0.03,-0.38 -0.04,-1.16 -0.02,-0.77 0.15,-1.89 0.46,-3.36 0.32,-1.48 1.12,-4.05 2.43,-7.7 1.31,-3.65 2.2,-6.6 2.67,-8.82 0.47,-2.22 0.58,-3.4 0.29,-3.54 -0.46,-0.12 -1.02,-0.33 -1.72,-0.59l0.97 -1.13c0.64,-0.71 0.99,-1.22 1.09,-1.56 0.09,-0.33 0.19,-0.54 0.3,-0.62 0.39,-0.18 1,-0.71 1.83,-1.59 0.82,-0.88 1.27,-1.41 1.35,-1.59 0.08,-0.17 0.48,-0.54 1.16,-1.12 0.7,-0.57 1.13,-0.86 1.31,-0.86 0.18,0 0.4,0.1 0.65,0.33 0.27,0.21 0.56,0.35 0.87,0.39 0.33,0.05 0.63,0.2 0.93,0.46 0.27,0.39 0.22,1.5 -0.14,3.3 -0.36,1.8 -0.38,2.83 -0.06,3.07 0.32,0.25 0.62,0.37 0.91,0.37 0.28,0 0.45,-0.2 0.49,-0.6l0.1 -0.79c0.03,-0.36 0.15,-0.51 0.37,-0.46 0.48,0.17 0.58,0.96 0.29,2.34 -0.3,1.39 -1.21,3.67 -2.75,6.87 -1.55,3.19 -2.62,5.31 -3.24,6.35 -0.63,1.03 -1,1.77 -1.14,2.21 -0.14,0.44 -0.85,1.48 -2.12,3.1 -1.27,1.63 -2.08,2.57 -2.41,2.81 -0.33,0.25 -0.53,0.5 -0.59,0.77l0.12 0.06 -0.45 -0.06z"/>
  <path class="fil0" d="M-0 88.62l82.02 0 6.52 0c1.31,-1.19 2.58,-2.42 3.79,-3.69l-8.24 0 -84.09 0 0 3.69zm103.78 0l146.01 0 0 -3.69 -143.11 0c-0.93,1.26 -1.9,2.5 -2.91,3.69z"/>
  <path class="fil0" d="M169.52 70.89c-0.02,-0.15 -0.03,-0.3 -0.04,-0.44 -0.01,-0.14 -0.01,-0.26 -0.02,-0.36 0,-0.12 -0.01,-0.23 -0.02,-0.34 -0.05,0.11 -0.11,0.22 -0.17,0.35 -0.06,0.11 -0.13,0.24 -0.2,0.39 -0.08,0.14 -0.16,0.3 -0.26,0.46l-3.74 6.42 -2.48 0 -0.56 -12.38 2.67 0 0.25 7.37c0.01,0.31 0.02,0.63 0.01,0.98 -0,0.35 -0,0.68 -0.01,0.99 -0,0.35 -0,0.71 -0.01,1.05 0.22,-0.39 0.44,-0.77 0.65,-1.14 0.19,-0.31 0.38,-0.64 0.57,-0.99 0.2,-0.35 0.38,-0.65 0.53,-0.91l3.4 -5.82 1.45 0 0.56 5.82c0.03,0.26 0.05,0.56 0.07,0.91 0.02,0.35 0.05,0.68 0.06,0.99 0.02,0.37 0.04,0.75 0.05,1.14 0.21,-0.39 0.41,-0.77 0.6,-1.13 0.17,-0.32 0.34,-0.65 0.52,-0.99 0.18,-0.34 0.33,-0.65 0.47,-0.9l3.85 -7.36 1.51 0 -6.64 12.38 -2.48 0 -0.61 -6.47zm72.45 2.85c-0.11,0.45 -0.34,0.9 -0.68,1.35 -0.34,0.45 -0.77,0.86 -1.29,1.22 -0.51,0.36 -1.1,0.66 -1.75,0.88 -0.66,0.23 -1.35,0.34 -2.09,0.34 -0.4,0 -0.77,-0.02 -1.09,-0.06 -0.32,-0.04 -0.63,-0.1 -0.9,-0.18 -0.28,-0.08 -0.54,-0.18 -0.79,-0.28 -0.25,-0.11 -0.49,-0.23 -0.73,-0.37l1.08 -1.83c0.15,0.12 0.36,0.25 0.62,0.38 0.27,0.13 0.56,0.26 0.88,0.37 0.31,0.11 0.64,0.21 0.97,0.28 0.33,0.08 0.65,0.12 0.94,0.12 0.67,0 1.19,-0.07 1.56,-0.22 0.21,-0.08 0.4,-0.26 0.59,-0.54 0.19,-0.28 0.34,-0.65 0.45,-1.11 0.08,-0.33 0.06,-0.59 -0.06,-0.8 -0.12,-0.21 -0.3,-0.4 -0.54,-0.57 -0.24,-0.16 -0.53,-0.31 -0.86,-0.43 -0.33,-0.13 -0.66,-0.27 -1,-0.41 -0.34,-0.14 -0.66,-0.31 -0.98,-0.5 -0.32,-0.19 -0.58,-0.42 -0.79,-0.7 -0.22,-0.28 -0.36,-0.61 -0.43,-1 -0.08,-0.39 -0.04,-0.86 0.09,-1.42 0.09,-0.36 0.29,-0.75 0.58,-1.15 0.3,-0.4 0.67,-0.77 1.14,-1.1 0.46,-0.33 1,-0.6 1.6,-0.82 0.61,-0.22 1.27,-0.33 1.98,-0.33 0.57,0 1.11,0.03 1.62,0.08 0.5,0.06 0.99,0.13 1.46,0.22l-0.84 1.83c-0.21,-0.08 -0.45,-0.15 -0.72,-0.22 -0.27,-0.07 -0.54,-0.13 -0.83,-0.18 -0.28,-0.05 -0.56,-0.09 -0.84,-0.12 -0.28,-0.03 -0.52,-0.05 -0.74,-0.05 -0.24,0 -0.48,0.01 -0.74,0.04 -0.26,0.03 -0.48,0.09 -0.67,0.17 -0.18,0.09 -0.34,0.24 -0.47,0.46 -0.12,0.21 -0.23,0.47 -0.3,0.78 -0.08,0.31 -0.06,0.58 0.06,0.78 0.12,0.21 0.3,0.39 0.55,0.54 0.25,0.16 0.53,0.3 0.86,0.42 0.33,0.13 0.66,0.27 1.01,0.42 0.34,0.15 0.67,0.32 0.98,0.51 0.32,0.19 0.58,0.43 0.79,0.71 0.21,0.29 0.35,0.63 0.42,1.04 0.07,0.4 0.04,0.89 -0.11,1.46zm-10.51 3.62l-7.46 0 3.09 -12.38 7.18 0 -0.43 1.25 -4.55 0.06 -1.01 4.04 4.27 0.05 -0.4 1.14 -4.19 0.09 -1.11 4.43 5.03 0.09 -0.42 1.22zm-12.88 0l1.39 -5.57 -5.59 0 -1.39 5.57 -2.52 0 3.09 -12.38 2.52 0 -1.35 5.42 5.59 0 1.35 -5.42 2.52 0 -3.09 12.38 -2.52 0zm-14.88 0.17c-0.97,0 -1.75,-0.16 -2.35,-0.47 -0.6,-0.31 -1.05,-0.75 -1.33,-1.32 -0.28,-0.57 -0.42,-1.25 -0.42,-2.04 0,-0.79 0.13,-1.67 0.37,-2.64 0.2,-0.78 0.46,-1.48 0.81,-2.09 0.34,-0.61 0.73,-1.15 1.17,-1.62 0.44,-0.46 0.92,-0.86 1.43,-1.18 0.51,-0.32 1.03,-0.58 1.56,-0.78 0.53,-0.2 1.05,-0.35 1.57,-0.44 0.52,-0.09 1.01,-0.13 1.49,-0.13 0.29,0 0.6,0.01 0.92,0.03 0.32,0.02 0.63,0.04 0.93,0.07 0.3,0.03 0.58,0.06 0.84,0.1 0.25,0.04 0.46,0.08 0.62,0.12l-0.91 1.75c-0.16,-0.05 -0.38,-0.1 -0.68,-0.17 -0.29,-0.06 -0.61,-0.12 -0.96,-0.17 -0.34,-0.05 -0.68,-0.09 -1.02,-0.13 -0.34,-0.04 -0.62,-0.05 -0.86,-0.05 -0.26,0 -0.48,0.01 -0.68,0.02 -0.2,0.02 -0.38,0.05 -0.55,0.08 -0.18,0.04 -0.34,0.1 -0.51,0.17 -0.17,0.07 -0.34,0.16 -0.52,0.27 -0.45,0.26 -0.84,0.75 -1.15,1.48 -0.32,0.73 -0.61,1.64 -0.88,2.72 -0.41,1.65 -0.47,2.91 -0.17,3.77 0.3,0.86 1.03,1.29 2.18,1.29 0.33,0 0.66,-0.01 1.02,-0.04 0.35,-0.02 0.71,-0.06 1.06,-0.11 0.35,-0.05 0.7,-0.1 1.05,-0.18 0.35,-0.07 0.68,-0.15 0.99,-0.25l-0.26 1.02c-0.36,0.14 -0.74,0.27 -1.14,0.38 -0.4,0.11 -0.81,0.2 -1.22,0.28 -0.42,0.08 -0.83,0.14 -1.23,0.17 -0.41,0.04 -0.8,0.06 -1.17,0.06zm-12.88 -0.17l2.76 -11.07 -3.8 -0.06 0.43 -1.25 10.03 0 -0.42 1.22 -3.72 0.1 -2.76 11.07 -2.53 0zm-5.76 0l-0.4 -4.17 -4.68 0.06 -2.52 4.11 -1.6 0 7.97 -12.27 2.55 -0.42 1.39 12.7 -2.71 0zm-0.52 -5.35l-0.52 -5.35 -3.3 5.35 3.82 0z"/>
  <path class="fil0" d="M106.44 91.5l1.81 -0.42 -1.86 5.18c-0.05,0.15 -0.11,0.3 -0.17,0.45 -0.06,0.16 -0.12,0.3 -0.16,0.43 -0.06,0.15 -0.12,0.3 -0.18,0.46 0.22,-0.12 0.44,-0.24 0.65,-0.34 0.22,-0.11 0.44,-0.2 0.67,-0.29 0.23,-0.08 0.46,-0.15 0.7,-0.19 0.24,-0.05 0.49,-0.08 0.75,-0.08 0.46,0 0.88,0.08 1.25,0.22 0.38,0.15 0.67,0.38 0.88,0.71 0.21,0.33 0.32,0.76 0.33,1.29 0.01,0.53 -0.13,1.17 -0.4,1.92 -0.26,0.73 -0.59,1.38 -0.99,1.95 -0.4,0.57 -0.85,1.05 -1.35,1.44 -0.51,0.4 -1.06,0.7 -1.66,0.9 -0.6,0.21 -1.22,0.31 -1.88,0.31 -0.52,0 -1.05,-0.03 -1.6,-0.11 -0.56,-0.07 -1.1,-0.19 -1.64,-0.36l4.85 -13.49zm132.47 5.93c0.22,-0.12 0.43,-0.24 0.65,-0.34 0.22,-0.11 0.44,-0.2 0.67,-0.28 0.23,-0.08 0.46,-0.15 0.7,-0.19 0.24,-0.05 0.49,-0.07 0.75,-0.07 0.46,0 0.88,0.08 1.25,0.22 0.38,0.15 0.67,0.38 0.88,0.71 0.21,0.33 0.32,0.76 0.33,1.29 0.01,0.53 -0.13,1.17 -0.4,1.92 -0.26,0.73 -0.6,1.38 -1.02,1.95 -0.42,0.57 -0.9,1.05 -1.44,1.44 -0.54,0.39 -1.13,0.7 -1.78,0.9 -0.65,0.21 -1.33,0.31 -2.05,0.31 -0.24,0 -0.48,-0.02 -0.71,-0.05 -0.24,-0.03 -0.44,-0.07 -0.6,-0.11 -0.03,0.08 -0.08,0.22 -0.14,0.42 -0.06,0.2 -0.13,0.4 -0.21,0.61l-1.56 4.35 -2.66 0.4 5.02 -13.95 2.37 -0.37 -0.04 0.84zm2.17 3.35c0.34,-0.93 0.42,-1.63 0.25,-2.08 -0.17,-0.45 -0.52,-0.68 -1.05,-0.68 -0.29,0 -0.57,0.03 -0.85,0.08 -0.28,0.06 -0.55,0.14 -0.84,0.24l-1.99 5.53c0.35,0.08 0.73,0.12 1.13,0.12 0.32,0 0.63,-0.03 0.92,-0.08 0.3,-0.06 0.54,-0.15 0.72,-0.27 0.1,-0.07 0.22,-0.19 0.35,-0.35 0.13,-0.16 0.28,-0.37 0.43,-0.61 0.16,-0.25 0.31,-0.53 0.46,-0.85 0.16,-0.32 0.3,-0.67 0.44,-1.06zm-12.88 -4.06l-2.03 5.65c-0.18,0.5 -0.23,0.87 -0.15,1.1 0.08,0.24 0.33,0.36 0.73,0.36 0.15,0 0.31,-0.02 0.5,-0.05 0.19,-0.04 0.38,-0.09 0.59,-0.16 0.21,-0.07 0.41,-0.15 0.62,-0.24 0.21,-0.08 0.4,-0.18 0.57,-0.28l2.29 -6.38 2.52 0 -3.03 8.42 -2.25 0 0.12 -0.98 -0.03 0c-0.21,0.11 -0.46,0.23 -0.76,0.36 -0.3,0.13 -0.61,0.26 -0.94,0.38 -0.33,0.12 -0.66,0.22 -1,0.3 -0.34,0.08 -0.65,0.12 -0.95,0.12 -0.34,0 -0.63,-0.05 -0.89,-0.16 -0.26,-0.1 -0.46,-0.26 -0.61,-0.47 -0.15,-0.21 -0.23,-0.47 -0.25,-0.77 -0.02,-0.31 0.05,-0.67 0.2,-1.09l2.2 -6.11 2.52 0zm-12.19 8.57c-1.45,0 -2.43,-0.37 -2.92,-1.11 -0.5,-0.74 -0.49,-1.82 0.02,-3.25 0.24,-0.67 0.56,-1.28 0.94,-1.82 0.39,-0.55 0.83,-1.01 1.34,-1.38 0.51,-0.38 1.08,-0.67 1.71,-0.87 0.63,-0.21 1.32,-0.31 2.05,-0.31 0.73,0 1.34,0.1 1.82,0.29 0.48,0.19 0.85,0.48 1.09,0.84 0.24,0.37 0.36,0.83 0.35,1.37 -0,0.54 -0.13,1.16 -0.38,1.85 -0.24,0.68 -0.56,1.29 -0.94,1.83 -0.38,0.54 -0.83,1 -1.34,1.38 -0.51,0.38 -1.08,0.67 -1.71,0.87 -0.63,0.2 -1.31,0.3 -2.04,0.3zm-0.28 -4.37c-0.4,1.1 -0.55,1.91 -0.45,2.43 0.09,0.52 0.46,0.78 1.11,0.78 0.26,0 0.5,-0.02 0.74,-0.06 0.24,-0.04 0.44,-0.1 0.62,-0.18 0.11,-0.05 0.23,-0.16 0.37,-0.34 0.13,-0.18 0.28,-0.4 0.42,-0.66 0.15,-0.26 0.29,-0.56 0.44,-0.9 0.15,-0.34 0.29,-0.69 0.42,-1.06 0.39,-1.07 0.53,-1.87 0.43,-2.41 -0.09,-0.53 -0.46,-0.8 -1.1,-0.8 -0.24,0 -0.48,0.02 -0.73,0.07 -0.25,0.05 -0.48,0.12 -0.69,0.21 -0.11,0.05 -0.24,0.16 -0.37,0.34 -0.13,0.18 -0.26,0.4 -0.4,0.66 -0.14,0.26 -0.28,0.56 -0.42,0.89 -0.14,0.33 -0.27,0.68 -0.4,1.03zm-3.07 -2.29c-0.17,-0.07 -0.36,-0.12 -0.57,-0.16 -0.2,-0.04 -0.41,-0.06 -0.61,-0.06 -0.15,0 -0.29,0.01 -0.41,0.04 -0.12,0.03 -0.25,0.06 -0.36,0.12 -0.12,0.06 -0.25,0.13 -0.38,0.21 -0.14,0.09 -0.29,0.19 -0.46,0.33l-2.17 6.03 -2.52 0 3.03 -8.42 2.26 0 -0.26 1.34 0.01 0c0.1,-0.1 0.22,-0.21 0.37,-0.35 0.15,-0.13 0.29,-0.27 0.45,-0.4 0.16,-0.13 0.32,-0.25 0.48,-0.37 0.16,-0.11 0.31,-0.18 0.45,-0.23 0.24,-0.08 0.51,-0.13 0.8,-0.15 0.29,-0.02 0.6,-0.03 0.92,-0.03l-1.03 2.09zm-10.98 1.64l-2.75 -0.15 0.5 -1.01 5.29 0 -1.85 5.14c-0.33,0.12 -0.73,0.25 -1.19,0.37 -0.46,0.12 -0.96,0.24 -1.49,0.34 -0.53,0.1 -1.07,0.18 -1.61,0.25 -0.54,0.06 -1.06,0.1 -1.55,0.1 -0.99,0 -1.77,-0.16 -2.34,-0.48 -0.58,-0.32 -0.97,-0.77 -1.2,-1.34 -0.22,-0.58 -0.29,-1.27 -0.19,-2.08 0.09,-0.81 0.32,-1.7 0.67,-2.69 0.36,-0.99 0.84,-1.87 1.46,-2.66 0.62,-0.79 1.33,-1.45 2.14,-2 0.81,-0.55 1.7,-0.97 2.65,-1.26 0.96,-0.29 1.95,-0.44 2.98,-0.44 0.25,0 0.53,0.01 0.84,0.03 0.31,0.02 0.61,0.04 0.91,0.07 0.29,0.03 0.57,0.07 0.83,0.11 0.26,0.04 0.48,0.08 0.64,0.13l-1.1 1.84c-0.19,-0.07 -0.44,-0.13 -0.73,-0.2 -0.3,-0.07 -0.62,-0.13 -0.95,-0.18 -0.34,-0.05 -0.68,-0.1 -1.02,-0.14 -0.34,-0.04 -0.65,-0.05 -0.93,-0.05 -0.46,0 -0.9,0.03 -1.33,0.11 -0.43,0.07 -0.86,0.23 -1.3,0.49 -0.24,0.14 -0.47,0.36 -0.69,0.65 -0.22,0.29 -0.43,0.63 -0.63,1.02 -0.2,0.38 -0.39,0.79 -0.58,1.23 -0.18,0.44 -0.35,0.87 -0.5,1.29 -0.6,1.68 -0.85,2.97 -0.73,3.87 0.11,0.9 0.65,1.34 1.6,1.34 0.24,0 0.49,-0.01 0.77,-0.03 0.27,-0.02 0.54,-0.04 0.81,-0.07 0.27,-0.03 0.52,-0.07 0.76,-0.1 0.24,-0.03 0.44,-0.07 0.62,-0.11l1.21 -3.37zm-11.09 -2.31c0.07,-0.19 0.12,-0.39 0.17,-0.61 0.04,-0.21 0.07,-0.37 0.08,-0.48l1.99 -0.31c0,0.11 -0.02,0.26 -0.06,0.44 -0.04,0.18 -0.09,0.35 -0.15,0.52 -0.24,0.66 -0.54,1.3 -0.91,1.92 -0.37,0.62 -0.8,1.24 -1.28,1.86 -0.49,0.62 -1.02,1.24 -1.62,1.88 -0.59,0.63 -1.22,1.28 -1.89,1.95l-1.84 0c0.05,-0.45 0.09,-0.89 0.14,-1.32 0.04,-0.42 0.09,-0.84 0.11,-1.26 0.03,-0.41 0.05,-0.82 0.07,-1.23 0.02,-0.41 0.02,-0.83 0.02,-1.26l-0.03 0c-0.26,0.39 -0.55,0.81 -0.88,1.27 -0.33,0.46 -0.67,0.92 -1.03,1.38 -0.36,0.46 -0.7,0.9 -1.05,1.33 -0.34,0.42 -0.65,0.79 -0.91,1.09l-1.9 0c0.05,-0.52 0.1,-1.04 0.14,-1.56 0.05,-0.53 0.09,-1.04 0.12,-1.53 0.04,-0.5 0.06,-0.97 0.09,-1.42 0.02,-0.45 0.04,-0.86 0.04,-1.22 0.01,-0.36 0,-0.67 -0.01,-0.92 -0.01,-0.25 -0.04,-0.43 -0.07,-0.54 -0.05,-0.13 -0.13,-0.22 -0.22,-0.26 -0.1,-0.05 -0.22,-0.07 -0.36,-0.07l-0.18 0 0.28 -0.79c0.25,-0.04 0.54,-0.08 0.9,-0.13 0.35,-0.05 0.7,-0.07 1.04,-0.07 0.26,0 0.48,0.03 0.64,0.09 0.16,0.05 0.27,0.16 0.34,0.31 0.05,0.12 0.09,0.31 0.12,0.55 0.02,0.24 0.03,0.53 0.03,0.85 -0,0.32 -0.01,0.68 -0.04,1.06 -0.02,0.38 -0.05,0.77 -0.09,1.16 -0.04,0.4 -0.07,0.78 -0.12,1.16 -0.04,0.38 -0.08,0.74 -0.12,1.07l0.03 0c0.39,-0.5 0.76,-0.97 1.09,-1.42 0.34,-0.45 0.66,-0.91 0.96,-1.35 0.3,-0.45 0.59,-0.9 0.87,-1.34 0.28,-0.45 0.56,-0.91 0.83,-1.39l1.85 -0.26c0.01,0.77 0,1.62 -0.03,2.58 -0.03,0.95 -0.09,2.02 -0.17,3.2l0.04 0c0.42,-0.45 0.78,-0.89 1.1,-1.34 0.31,-0.44 0.59,-0.86 0.82,-1.28 0.23,-0.41 0.43,-0.81 0.6,-1.2 0.17,-0.39 0.31,-0.76 0.44,-1.1zm-19.43 7.33c-1.45,0 -2.43,-0.37 -2.92,-1.11 -0.5,-0.74 -0.49,-1.82 0.02,-3.25 0.24,-0.67 0.56,-1.28 0.94,-1.82 0.39,-0.55 0.83,-1.01 1.34,-1.38 0.51,-0.38 1.08,-0.67 1.71,-0.87 0.63,-0.21 1.32,-0.31 2.05,-0.31 0.73,0 1.34,0.1 1.82,0.29 0.48,0.19 0.85,0.48 1.09,0.84 0.24,0.37 0.36,0.83 0.35,1.37 -0,0.54 -0.13,1.16 -0.38,1.85 -0.24,0.68 -0.56,1.29 -0.94,1.83 -0.38,0.54 -0.83,1 -1.34,1.38 -0.51,0.38 -1.08,0.67 -1.71,0.87 -0.63,0.2 -1.31,0.3 -2.04,0.3zm-0.28 -4.37c-0.4,1.1 -0.55,1.91 -0.45,2.43 0.09,0.52 0.46,0.78 1.11,0.78 0.26,0 0.5,-0.02 0.74,-0.06 0.24,-0.04 0.44,-0.1 0.62,-0.18 0.11,-0.05 0.23,-0.16 0.37,-0.34 0.13,-0.18 0.28,-0.4 0.42,-0.66 0.15,-0.26 0.29,-0.56 0.44,-0.9 0.15,-0.34 0.29,-0.69 0.42,-1.06 0.39,-1.07 0.53,-1.87 0.43,-2.41 -0.09,-0.53 -0.46,-0.8 -1.1,-0.8 -0.24,0 -0.48,0.02 -0.73,0.07 -0.25,0.05 -0.48,0.12 -0.69,0.21 -0.11,0.05 -0.24,0.16 -0.37,0.34 -0.13,0.18 -0.26,0.4 -0.4,0.66 -0.14,0.26 -0.28,0.56 -0.42,0.89 -0.14,0.33 -0.27,0.68 -0.4,1.03zm-5.8 -4.22c0.04,-0.12 0.07,-0.24 0.12,-0.37 0.03,-0.1 0.06,-0.2 0.1,-0.31 0.04,-0.11 0.07,-0.2 0.1,-0.26l1.59 -4.42 2.68 -0.49 -5.14 14.3 -1.7 0 -0.43 -0.79 -0.03 0c-0.22,0.13 -0.44,0.24 -0.67,0.35 -0.23,0.11 -0.46,0.21 -0.7,0.3 -0.23,0.09 -0.47,0.16 -0.72,0.21 -0.25,0.05 -0.5,0.08 -0.75,0.08 -0.46,0 -0.88,-0.08 -1.25,-0.22 -0.38,-0.15 -0.67,-0.38 -0.88,-0.71 -0.21,-0.33 -0.32,-0.76 -0.33,-1.29 -0.01,-0.53 0.13,-1.17 0.4,-1.92 0.26,-0.72 0.59,-1.37 0.99,-1.94 0.4,-0.57 0.85,-1.05 1.36,-1.45 0.51,-0.4 1.06,-0.7 1.65,-0.9 0.6,-0.21 1.22,-0.32 1.88,-0.32 0.26,0 0.54,0.02 0.85,0.05 0.31,0.03 0.6,0.07 0.89,0.11zm-4.94 4.31c-0.34,0.96 -0.43,1.66 -0.26,2.11 0.17,0.45 0.54,0.68 1.09,0.68 0.28,0 0.56,-0.03 0.85,-0.11 0.29,-0.07 0.55,-0.16 0.8,-0.26l1.97 -5.48c-0.35,-0.08 -0.72,-0.12 -1.12,-0.12 -0.34,0 -0.66,0.03 -0.95,0.08 -0.29,0.06 -0.53,0.15 -0.72,0.27 -0.19,0.14 -0.44,0.45 -0.75,0.92 -0.31,0.47 -0.61,1.11 -0.9,1.91zm-5.33 2.87c0.22,0 0.53,-0.05 0.93,-0.15l-0.2 0.57c-0.18,0.13 -0.37,0.24 -0.6,0.36 -0.22,0.11 -0.45,0.21 -0.69,0.3 -0.24,0.08 -0.47,0.16 -0.71,0.2 -0.24,0.05 -0.46,0.08 -0.68,0.08 -0.23,0 -0.42,-0.03 -0.56,-0.09 -0.14,-0.06 -0.25,-0.14 -0.34,-0.25 -0.08,-0.1 -0.14,-0.21 -0.18,-0.34 -0.04,-0.12 -0.07,-0.25 -0.08,-0.37 -0.26,0.14 -0.52,0.27 -0.78,0.41 -0.25,0.13 -0.51,0.25 -0.77,0.35 -0.26,0.11 -0.53,0.18 -0.81,0.25 -0.27,0.06 -0.56,0.09 -0.87,0.09 -0.69,0 -1.16,-0.21 -1.41,-0.61 -0.25,-0.41 -0.23,-1.03 0.07,-1.86 0.16,-0.44 0.36,-0.82 0.59,-1.15 0.23,-0.32 0.52,-0.59 0.86,-0.81 0.34,-0.21 0.74,-0.38 1.2,-0.49 0.46,-0.11 1,-0.17 1.61,-0.19l1.54 -0.05 0.43 -1.21c0.12,-0.32 0.11,-0.56 -0.03,-0.71 -0.13,-0.15 -0.42,-0.23 -0.87,-0.23 -0.32,0 -0.71,0.04 -1.15,0.11 -0.45,0.08 -0.93,0.2 -1.45,0.37l-0.03 -0.88c0.35,-0.13 0.72,-0.26 1.1,-0.38 0.38,-0.13 0.75,-0.24 1.13,-0.34 0.37,-0.1 0.75,-0.18 1.12,-0.23 0.37,-0.06 0.73,-0.09 1.09,-0.09 0.39,0 0.72,0.03 1.01,0.11 0.28,0.07 0.5,0.18 0.65,0.35 0.15,0.16 0.23,0.38 0.24,0.65 0.02,0.27 -0.05,0.6 -0.19,1l-1.39 3.88c-0.32,0.9 -0.25,1.35 0.2,1.35zm-2.96 -0.4c0,-0.03 0.03,-0.13 0.07,-0.28 0.05,-0.15 0.11,-0.34 0.18,-0.58 0.07,-0.24 0.16,-0.5 0.26,-0.79 0.1,-0.29 0.2,-0.6 0.32,-0.93 -0.62,0 -1.1,0.03 -1.45,0.11 -0.35,0.07 -0.58,0.15 -0.69,0.25 -0.05,0.04 -0.1,0.11 -0.16,0.21 -0.06,0.1 -0.12,0.21 -0.18,0.33 -0.06,0.13 -0.12,0.25 -0.18,0.38 -0.06,0.13 -0.1,0.25 -0.14,0.36 -0.14,0.38 -0.19,0.68 -0.17,0.93 0.02,0.24 0.17,0.36 0.43,0.36 0.28,0 0.56,-0.03 0.84,-0.1 0.28,-0.07 0.56,-0.15 0.85,-0.25zm-10.63 -5.77c0.21,-0.11 0.46,-0.23 0.76,-0.36 0.3,-0.13 0.61,-0.26 0.94,-0.38 0.33,-0.12 0.66,-0.22 1,-0.3 0.34,-0.08 0.65,-0.12 0.95,-0.12 0.34,0 0.63,0.05 0.89,0.16 0.26,0.1 0.46,0.26 0.61,0.47 0.15,0.21 0.23,0.47 0.25,0.77 0.02,0.31 -0.05,0.67 -0.2,1.09l-2.2 6.11 -2.52 0 2.03 -5.65c0.18,-0.5 0.23,-0.87 0.15,-1.11 -0.08,-0.24 -0.33,-0.36 -0.73,-0.36 -0.15,0 -0.31,0.02 -0.5,0.05 -0.19,0.04 -0.38,0.09 -0.59,0.16 -0.21,0.07 -0.41,0.15 -0.62,0.24 -0.21,0.08 -0.4,0.18 -0.57,0.28l-2.29 6.38 -2.52 0 4.97 -13.82 2.69 -0.48 -1.89 5.25c-0.05,0.15 -0.11,0.32 -0.18,0.5 -0.07,0.18 -0.14,0.36 -0.21,0.53 -0.08,0.19 -0.15,0.39 -0.22,0.59l0.03 0zm-5.85 3.74c-0.16,0.46 -0.45,0.92 -0.84,1.38 -0.4,0.46 -0.88,0.87 -1.45,1.24 -0.56,0.37 -1.19,0.67 -1.88,0.9 -0.69,0.23 -1.41,0.34 -2.17,0.34 -0.41,0 -0.78,-0.02 -1.1,-0.06 -0.33,-0.04 -0.63,-0.1 -0.9,-0.18 -0.27,-0.08 -0.53,-0.18 -0.77,-0.29 -0.24,-0.11 -0.47,-0.24 -0.7,-0.37l1.3 -1.87c0.14,0.12 0.33,0.25 0.59,0.38 0.26,0.13 0.55,0.26 0.85,0.37 0.31,0.11 0.63,0.21 0.96,0.29 0.33,0.08 0.65,0.12 0.95,0.12 0.68,0 1.22,-0.08 1.62,-0.22 0.22,-0.08 0.44,-0.26 0.66,-0.55 0.22,-0.29 0.42,-0.66 0.59,-1.13 0.12,-0.33 0.13,-0.6 0.03,-0.82 -0.1,-0.22 -0.26,-0.41 -0.49,-0.58 -0.23,-0.16 -0.51,-0.31 -0.83,-0.44 -0.32,-0.13 -0.65,-0.27 -0.98,-0.42 -0.33,-0.15 -0.64,-0.32 -0.94,-0.51 -0.3,-0.19 -0.55,-0.43 -0.73,-0.71 -0.19,-0.28 -0.3,-0.62 -0.33,-1.02 -0.03,-0.4 0.05,-0.88 0.26,-1.45 0.13,-0.37 0.37,-0.76 0.72,-1.17 0.35,-0.41 0.77,-0.78 1.28,-1.12 0.51,-0.34 1.08,-0.61 1.72,-0.84 0.64,-0.22 1.33,-0.33 2.05,-0.33 0.58,0 1.13,0.03 1.64,0.08 0.5,0.06 1,0.13 1.46,0.22l-1.06 1.86c-0.21,-0.08 -0.44,-0.16 -0.71,-0.22 -0.27,-0.07 -0.54,-0.13 -0.83,-0.18 -0.28,-0.05 -0.56,-0.09 -0.84,-0.13 -0.28,-0.03 -0.53,-0.05 -0.75,-0.05 -0.24,0 -0.49,0.01 -0.76,0.04 -0.27,0.03 -0.5,0.09 -0.7,0.18 -0.2,0.09 -0.37,0.25 -0.53,0.47 -0.15,0.22 -0.28,0.48 -0.39,0.79 -0.11,0.32 -0.12,0.59 -0.02,0.8 0.1,0.21 0.26,0.4 0.49,0.55 0.23,0.16 0.51,0.3 0.83,0.43 0.32,0.13 0.65,0.27 0.98,0.42 0.33,0.15 0.65,0.32 0.94,0.52 0.3,0.19 0.54,0.44 0.73,0.73 0.18,0.29 0.29,0.64 0.31,1.06 0.03,0.41 -0.06,0.91 -0.27,1.49zm-16.04 -3.24c0.04,-0.11 0.08,-0.24 0.11,-0.36 0.03,-0.13 0.06,-0.25 0.08,-0.36 0.02,-0.11 0.03,-0.21 0.04,-0.29 0.01,-0.09 0.01,-0.16 0.01,-0.21l1.54 -0.33c0.02,0.14 -0,0.32 -0.05,0.54 -0.05,0.21 -0.12,0.44 -0.2,0.67 -0.18,0.5 -0.45,1.05 -0.83,1.67 -0.37,0.62 -0.81,1.26 -1.29,1.91 -0.49,0.66 -1.03,1.32 -1.6,1.98 -0.58,0.67 -1.15,1.29 -1.72,1.87 -0.4,0.4 -0.82,0.82 -1.25,1.26 -0.44,0.44 -0.89,0.87 -1.34,1.3 -0.46,0.42 -0.92,0.83 -1.38,1.22 -0.47,0.39 -0.93,0.73 -1.38,1.03 -0.45,0.29 -0.9,0.53 -1.32,0.7 -0.43,0.17 -0.84,0.26 -1.22,0.26 -0.24,0 -0.43,-0.03 -0.59,-0.08 -0.15,-0.05 -0.28,-0.12 -0.38,-0.21l0.19 -0.53c0.07,0.02 0.14,0.03 0.24,0.05 0.09,0.01 0.17,0.02 0.25,0.02 0.24,0 0.54,-0.08 0.9,-0.23 0.36,-0.15 0.75,-0.35 1.17,-0.61 0.42,-0.25 0.86,-0.54 1.31,-0.86 0.45,-0.33 0.9,-0.66 1.33,-1.02 0.44,-0.36 0.84,-0.71 1.23,-1.05 0.39,-0.35 0.73,-0.68 1.02,-0.98 0.01,-0.92 0.01,-1.78 -0.01,-2.58 -0.02,-0.8 -0.05,-1.53 -0.09,-2.18 -0.04,-0.65 -0.08,-1.21 -0.14,-1.68 -0.06,-0.47 -0.12,-0.84 -0.18,-1.09 -0.05,-0.2 -0.15,-0.34 -0.29,-0.42 -0.14,-0.09 -0.29,-0.13 -0.46,-0.13l-0.13 0 0.18 -0.51c0.15,-0.04 0.36,-0.08 0.63,-0.13 0.26,-0.05 0.51,-0.07 0.75,-0.07 0.21,0 0.41,0.03 0.59,0.08 0.18,0.05 0.31,0.16 0.37,0.31 0.1,0.22 0.18,0.56 0.23,1.03 0.05,0.47 0.09,1 0.11,1.61 0.02,0.61 0.03,1.27 0.03,1.98 -0,0.71 -0.02,1.42 -0.03,2.14l0.03 0c0.49,-0.53 0.93,-1.05 1.31,-1.56 0.38,-0.5 0.71,-1 0.99,-1.47 0.29,-0.48 0.53,-0.94 0.73,-1.39 0.2,-0.45 0.38,-0.89 0.54,-1.32zm-10.41 2.73c0.2,-0.55 0.32,-1.03 0.34,-1.42 0.03,-0.39 -0.01,-0.71 -0.12,-0.97 -0.12,-0.25 -0.3,-0.44 -0.54,-0.55 -0.25,-0.11 -0.54,-0.17 -0.89,-0.17 -0.34,0 -0.68,0.03 -1.02,0.11 -0.33,0.07 -0.67,0.16 -1,0.28l-2.23 6.2c0.25,0.04 0.49,0.07 0.72,0.09 0.24,0.02 0.49,0.03 0.77,0.03 0.39,0 0.77,-0.03 1.13,-0.1 0.36,-0.07 0.65,-0.17 0.88,-0.32 0.12,-0.08 0.26,-0.21 0.41,-0.38 0.15,-0.17 0.32,-0.39 0.5,-0.66 0.18,-0.27 0.36,-0.58 0.53,-0.94 0.18,-0.35 0.35,-0.75 0.51,-1.2z"/>
  <path class="fil0" d="M76.44 9.78c8.85,1.33 43.58,3.28 54.36,3.85 34.43,1.81 68.18,2.72 102.57,3.18 4.21,0.06 9.47,-0.18 13.54,0.2 -1.21,0.95 -12.58,4.83 -15.66,5.99 -2.77,1.04 -2.9,0.98 -6.24,0.98 -31.96,-0.01 -64.12,-0.5 -96.05,-2.45l-52.96 -3.67c-0.11,2.01 -0.22,4.02 -0.31,6.04 -0.11,2.41 -0.39,3.75 -3.07,3.19 -1.53,-0.93 -0.59,-6.31 -0.51,-9.37l-57.56 -4.66c-2.73,-0.24 -4.48,-1.39 -4.41,-4.2 0.15,-6.16 7.35,-4.04 12.47,-3.62 16.39,1.36 33.75,2.97 49.97,4.03 0.1,-1.96 0.21,-3.93 0.3,-5.89 0.08,-1.67 0.1,-3.65 2.31,-3.33 2.84,0.42 1.34,7.17 1.24,9.74zm71.78 11.29l-49.07 -2.81c-7.48,-0.51 -15.56,-0.85 -22.95,-1.84l-0.06 -1.59c39.82,2.89 77.57,5.48 117.65,5.92 6.65,0.07 13.34,0.14 19.97,0.08 6.13,-0.05 13.97,-0.57 19.97,-0.21 -4.27,3.09 -13.37,2.11 -19.4,2.15 -20.32,0.12 -46.04,-0.62 -66.1,-1.68zm-119.61 -11.43l1.81 -2.86 0.5 0.67c0.09,0.16 0.35,0.76 0.43,0.96 0.38,0.91 0.34,1.03 0.98,1.63l1.74 -3.02c0.87,0.85 0.9,1.83 1.47,2.73 0.27,0.42 0.18,0.29 0.38,0.48l1.87 -2.95 1.67 3.4 1.92 -3.04c1.2,1.05 0.7,2.17 1.92,3.27l1.73 -3.02 1.74 3.41 1.9 -3.1c0.13,0.1 0.19,0.12 0.21,0.22l0.34 0.54c0.09,0.17 0.32,0.7 0.43,0.96l0.99 1.69 1.69 -3.16c0.91,0.91 0.81,1.58 1.29,2.46l0.69 0.91 1.7 -3.1 1.72 3.43 1.89 -3.14c0.76,0.6 0.98,2.33 1.87,3.33 0.59,-1.01 1.08,-2.25 1.91,-3.01l1.58 3.2 1.98 -3.01 1.62 3.28c2.2,-1.65 0.3,-3.29 3.98,-3.05l-0.38 7.25 -1.94 -0.15c-0.19,-0.56 -0.44,-1.14 -0.69,-1.73 -0.13,-0.31 -0.23,-0.65 -0.41,-0.98l-0.64 -0.88 -1.68 2.92c-0.15,-0.12 -0.21,-0.28 -0.23,-0.24l-1.58 -3.02 -1.86 3 -1.72 -3.21c-0.72,0.77 -1.23,2.26 -2.04,2.88l-1.58 -3.1c-0.98,0.89 -1.04,1.79 -2.08,2.78l-1.82 -2.76c-0.03,0.03 -0.12,0.11 -0.15,0.15 -0.04,0.04 -0.1,0.11 -0.14,0.16 -0.55,0.68 -0.75,1.41 -1.55,2.19l-1.53 -2.96c-1.18,0.89 -1.14,1.93 -2.13,2.69l-1.55 -3.11c-0.66,0.54 -0.47,0.46 -0.95,1.28 -0.14,0.25 -0.28,0.51 -0.43,0.72l-0.73 0.79 -1.5 -3.06 -1.06 1.31c-0.52,0.88 -0.5,1.01 -1.25,1.54l-1.41 -3.23c-0.46,0.47 -0.68,0.86 -1.03,1.46 -0.59,1.01 -0.43,0.99 -1.16,1.51l-1.4 -3.21c-1.14,0.87 -1.06,2.02 -2.19,2.95l-1.49 -3.16c-0.1,0.06 -0.17,0.07 -0.19,0.16l-1.9 2.73 -1.58 -3.25c-0.74,0.62 -0.97,1.44 -1.49,2.15l-0.74 0.79 -1.4 -3.2 -2.1 3c-2.06,-4.45 -2.04,-2.68 0.25,-6.78 0.55,0.55 0.59,0.77 0.91,1.56 0.11,0.26 0.18,0.51 0.32,0.79 0.03,0.06 0.06,0.13 0.09,0.19l0.48 0.68 1.92 -2.94c0.39,0.53 0.52,0.9 0.79,1.53 0.11,0.27 0.2,0.52 0.34,0.78 0.18,0.33 0.02,0.07 0.21,0.37 0.28,0.43 0.18,0.28 0.4,0.52zm-8.05 3.11c-4.03,-0.27 -9.5,0.42 -9.41,-3.86 0.09,-4.92 5.67,-3.25 9.61,-2.98 0.07,1.21 -1.22,2.06 -1.39,3.19 -0.15,0.99 0.97,2.3 1.2,3.64z"/>
 </g>
</svg>
